#!OML:ASF F:\VICON\USERDATA\INSTALL\rory3\rory3.ASF
:FULLY-SPECIFIED
:DEGREES
309
root 0.242042 17.8274 29.9721 -2.9597 -1.70784 -6.11869
lowerback 9.54108 1.17361 5.54243
upperback 1.0904 2.23832 2.23625
thorax -4.09384 1.03348 -1.07234
lowerneck -15.5387 -3.21669 -1.70658
upperneck 20.6181 -4.18283 0.631314
head 9.08728 -2.02151 -0.016321
rclavicle 2.23136e-014 1.83876e-014
rhumerus -22.7166 -10.7164 -83.3535
rradius 32.6118
rwrist -1.02219
rhand -18.9316 23.902
rfingers 7.12502
rthumb 7.37113 -5.94955
lclavicle 2.23136e-014 1.83876e-014
lhumerus -34.1203 6.87739 83.86
lradius 24.6441
lwrist 6.37644
lhand -31.0281 17.8166
lfingers 7.12502
lthumb -4.31028 47.7527
rfemur -0.521034 7.9504 33.8657
rtibia 29.5512
rfoot -19.5314 -10.1787
rtoes 6.8834
lfemur -27.7694 0.0887159 -12.8818
ltibia 41.4772
lfoot -4.57857 5.13862
ltoes 4.47092
310
root 0.251503 17.8225 30.1403 -2.76632 -1.82017 -6.43388
lowerback 9.62681 1.24778 5.94281
upperback 0.961107 2.39136 2.21084
thorax -4.25119 1.09577 -1.34517
lowerneck -15.4438 -3.23615 -1.57806
upperneck 20.4514 -4.26957 0.753454
head 9.0132 -2.04009 -0.00347473
rclavicle 3.84524e-015 -2.19657e-014
rhumerus -22.6967 -10.6651 -83.4589
rradius 32.8418
rwrist -1.12285
rhand -19.0297 24.1916
rfingers 7.12502
rthumb 7.27651 -5.66328
lclavicle 3.84524e-015 -2.19657e-014
lhumerus -34.3305 7.07059 83.661
lradius 24.4664
lwrist 6.69864
lhand -32.1663 13.8401
lfingers 7.12502
lthumb -5.40928 43.751
rfemur 0.198007 7.94759 34.2126
rtibia 28.9358
rfoot -19.8264 -10.1249
rtoes 6.9172
lfemur -27.6915 -0.449166 -12.2967
ltibia 38.279
lfoot -4.0502 5.03767
ltoes -3.02864
311
root 0.262367 17.8173 30.3133 -2.55336 -1.96067 -6.62563
lowerback 9.45653 1.33676 6.13269
upperback 0.915744 2.51892 2.23274
thorax -4.1883 1.15669 -1.43917
lowerneck -15.4363 -3.24844 -1.56537
upperneck 20.4243 -4.3074 0.8317
head 9.00457 -2.04838 0.0167225
rclavicle -2.43014e-014 -1.39149e-014
rhumerus -22.447 -10.535 -83.4732
rradius 32.8203
rwrist -1.20298
rhand -19.0727 24.3468
rfingers 7.12502
rthumb 7.23497 -5.50952
lclavicle -2.43014e-014 -1.39149e-014
lhumerus -34.4415 7.43784 83.4147
lradius 24.1899
lwrist 6.12934
lhand -31.9436 15.2063
lfingers 7.12502
lthumb -5.19424 45.1226
rfemur 0.901704 7.95493 34.4027
rtibia 28.376
rfoot -20.1848 -10.0118
rtoes 7.11471
lfemur -27.5158 -1.10559 -11.7691
ltibia 35.0153
lfoot -4.47191 5.35419
ltoes -1.6024
312
root 0.268208 17.799 30.4868 -2.42975 -2.25642 -6.88929
lowerback 9.41689 1.4599 6.26994
upperback 0.960344 2.69486 2.32978
thorax -4.10607 1.24505 -1.43371
lowerneck -15.6739 -3.26989 -1.54006
upperneck 20.5235 -4.33575 0.805935
head 9.08145 -2.06019 -0.00480122
rclavicle -2.09345e-015 3.4191e-014
rhumerus -22.1506 -10.2247 -83.5103
rradius 33.0215
rwrist -1.4299
rhand -18.9648 24.2766
rfingers 7.12502
rthumb 7.33914 -5.57615
lclavicle -2.09345e-015 3.4191e-014
lhumerus -34.5375 7.52971 83.3569
lradius 24.2435
lwrist 6.17907
lhand -31.4802 17.4564
lfingers 7.12502
lthumb -4.74683 47.3833
rfemur 1.71248 8.15386 34.7308
rtibia 27.8014
rfoot -20.2828 -9.98414
rtoes 6.58004
lfemur -27.1953 -1.69009 -11.1233
ltibia 31.7721
lfoot -3.55124 5.15971
ltoes -10.5855
313
root 0.273786 17.778 30.6631 -2.34587 -2.48408 -7.03246
lowerback 9.42173 1.54485 6.29073
upperback 0.959873 2.81273 2.38852
thorax -4.10328 1.30338 -1.39848
lowerneck -15.9393 -3.30089 -1.62357
upperneck 20.7726 -4.35972 0.814127
head 9.21912 -2.07365 0.00166857
rclavicle 4.09993e-016 4.07509e-015
rhumerus -21.9581 -9.929 -83.5544
rradius 33.1429
rwrist -1.6243
rhand -18.9248 24.246
rfingers 7.12502
rthumb 7.37777 -5.60533
lclavicle 4.09993e-016 4.07509e-015
lhumerus -34.8396 7.71789 83.2801
lradius 24.3365
lwrist 6.47866
lhand -31.8846 16.4844
lfingers 7.12502
lthumb -5.13727 46.4021
rfemur 2.5319 8.23125 34.9268
rtibia 27.2834
rfoot -20.3146 -10.0577
rtoes 5.84422
lfemur -26.7311 -2.69243 -10.5189
ltibia 28.543
lfoot -3.49465 5.61103
ltoes -13.8598
